# xmcd
#
# Track frame offsets: 
#        150
#        11031
#        27780
#        40590
#        56976
#        75805
#        86146
#        106149
#        114986
#        124303
#        141988
#        155066
#        175420
#        189672
#        210330
#        225440
#        238246
#        247889
#        262764
#        282289
#        298844
#        312139
#        323858
#
# Disc length: 4631 seconds
#
# Revision: 0
# Processed by: cddbd v1.5.2PL0 Copyright (c) Steve Scherf et al.
# Submitted via: ExactAudioCopyFreeDBPlugin 1.0
#
DISCID=3b121517
DTITLE=Miss Melanie And The Valley Rats - Miss Melanie And The Valley 
DTITLE=Rats
DYEAR=2018
DGENRE=Blues
TTITLE0=Whiskey And Me
TTITLE1=Nothin Left To Tell
TTITLE2=For Once In My Life
TTITLE3=To Make You Feel My Love
TTITLE4=Maybe
TTITLE5=Til Your Fool Comes Home
TTITLE6=Cold Cold Heart
TTITLE7=Shine
TTITLE8=Let's Ride
TTITLE9=Witch And She-devil
TTITLE10=If I Had My Druthers
TTITLE11=I'll Be Damned
TTITLE12=Tell Me Where It's At
TTITLE13=You're All I Got
TTITLE14=Help
TTITLE15=Don't You Ever Untie This Knot
TTITLE16=Good Man
TTITLE17=Cheater
TTITLE18=Promise Of Dawn
TTITLE19=The End Of You
TTITLE20=Demons
TTITLE21=Strictly Reserved For You
TTITLE22=Amazing Grace
EXTD=
EXTT0=
EXTT1=
EXTT2=
EXTT3=
EXTT4=
EXTT5=
EXTT6=
EXTT7=
EXTT8=
EXTT9=
EXTT10=
EXTT11=
EXTT12=
EXTT13=
EXTT14=
EXTT15=
EXTT16=
EXTT17=
EXTT18=
EXTT19=
EXTT20=
EXTT21=
EXTT22=
PLAYORDER=
